<?xml version="1.0" encoding="utf-8"?>
<!-- Generator: Adobe Illustrator 19.1.0, SVG Export Plug-In . SVG Version: 6.00 Build 0)  -->
<svg version="1.1" id="Layer_1" xmlns="http://www.w3.org/2000/svg" xmlns:xlink="http://www.w3.org/1999/xlink" x="0px" y="0px"
	 viewBox="0 0 792 612" style="enable-background:new 0 0 792 612;" xml:space="preserve">
<style type="text/css">
	.st0{fill:#FFFFFF;}
	.st1{font-family:'Gotham-Bold';}
	.st2{font-size:24.1189px;}
	.st3{fill:#F2F2F2;}
	.st4{fill:#414764;}
	.st5{fill:#323A5B;}
	.st6{font-size:23px;}
	.st7{letter-spacing:1;}
	.st8{fill:#323A5C;}
</style>
<text transform="matrix(1 0 0 1 411.2718 315.3533)" class="st0 st1 st2">SOU</text>
<text transform="matrix(1 0 0 1 471.2718 315.3533)" class="st0 st1 st2">T</text>
<text transform="matrix(1 0 0 1 488.7718 315.3533)" class="st0 st1 st2">H</text>
<text transform="matrix(1 0 0 1 411.2718 344.2966)" class="st0 st1 st2">AFRIC</text>
<text transform="matrix(1 0 0 1 499.1718 344.2966)" class="st0 st1 st2">A</text>
<rect x="139.9" y="176.4" class="st3" width="512.3" height="259.1"/>
<rect x="147.9" y="183.5" class="st4" width="244.6" height="244.6"/>
<rect x="399.8" y="183.5" class="st5" width="244.6" height="244.6"/>
<text transform="matrix(1 0 0 1 420.2632 305.7998)"><tspan x="0" y="0" class="st0 st1 st6 st7">BUS SHELTER</tspan><tspan x="0" y="27.6" class="st0 st1 st6 st7">RENOVATIONS</tspan></text>
<circle class="st0" cx="243.9" cy="304.5" r="4.4"/>
<path class="st0" d="M246,308.9h-4.3c-2.4,0-4.4,2-4.4,4.4v12.6c0,1.1,0.9,2.1,2,2.2v13h9.1v-13c1.1-0.1,2-1,2-2.2v-12.6
	C250.3,310.9,248.4,308.9,246,308.9z"/>
<polygon class="st0" points="258.3,280.7 222,280.7 222,287.7 222,341.1 228,341.1 228,288.3 258.3,288.2 "/>
<path class="st0" d="M318.1,316.7c0-0.3,0-0.6,0-0.9l-1.2-32.4c-0.4-2.8-2.8-4.8-5.6-4.8h-40.8c-2.8,0-5.2,2.1-5.6,4.8l-1.2,32.4
	c0,0.3,0,0.6,0,0.9l-0.3,8.1c-0.1,2.5,0.8,5,2.4,6.9v7.2c0,1.2,1.3,2.1,2.9,2.1h4.6c1.6,0,2.9-0.9,2.9-2.1v-3.5h29.7v3.5
	c0,1.2,1.3,2.1,2.9,2.1h4.6c1.6,0,2.9-0.9,2.9-2.1v-7.2c1.6-1.9,2.5-4.4,2.4-6.9L318.1,316.7z M284.7,283c0-0.9,0.7-1.6,1.6-1.6h9.1
	c0.9,0,1.6,0.7,1.6,1.6v0.1c0,0.9-0.7,1.6-1.6,1.6h-9.1c-0.9,0-1.6-0.7-1.6-1.6V283z M273.2,327.9c-2.7,0-4.8-2.2-4.8-4.8
	c0-2.7,2.2-4.8,4.8-4.8c2.7,0,4.8,2.2,4.8,4.8C278,325.8,275.8,327.9,273.2,327.9z M308.6,327.9c-2.7,0-4.8-2.2-4.8-4.8
	c0-2.7,2.2-4.8,4.8-4.8s4.8,2.2,4.8,4.8C313.4,325.8,311.3,327.9,308.6,327.9z M310.6,313c-14.5,2.1-26.3,2.3-39.6,0.1
	c-1.7-0.3-2.9-1.8-2.9-3.5c0.2-5.9,0.5-18.6,0.5-18.6c0.2-1.1,1.1-1.9,2.2-1.9c6.5-1.1,34.2-1.2,40.1,0c1.1,0,2,0.8,2.2,1.9
	c0,0,0.3,12.6,0.5,18.5C313.7,311.2,312.4,312.7,310.6,313z"/>
<rect id="XMLID_18_" x="150.2" y="183.5" class="st5" width="242.3" height="242.3"/>
<ellipse id="XMLID_12_" class="st0" cx="243.1" cy="301.2" rx="4.5" ry="4.2"/>
<path id="XMLID_11_" class="st0" d="M245.1,305.5h-4.3c-2.4,0-4.4,1.9-4.4,4.2v12.1c0,1.1,0.9,2,2,2.1v12.5h9.1V324
	c1.1-0.1,2-1,2-2.1v-12.1C249.6,307.4,247.6,305.5,245.1,305.5z"/>
<path id="XMLID_4_" class="st0" d="M260.8,311.7c0-0.3,0-0.6,0-0.9l1.3-33.1c0.4-2.8,2.9-4.9,5.8-4.9h42.1c2.9,0,5.3,2.1,5.8,4.9
	l1.3,33.1c0,0.3,0,0.6,0,0.9l0.3,8.3c0.1,2.6-0.8,5.1-2.4,7.1v7.3c0,1.2-1.3,2.2-3,2.2h-4.7c-1.6,0-3-1-3-2.2v-3.5h-30.7v3.5
	c0,1.2-1.3,2.2-3,2.2h-4.7c-1.6,0-3-1-3-2.2v-7.3c-1.7-2-2.6-4.5-2.4-7.1L260.8,311.7z M270.2,323.1c2.8,0,5.1-1.6,5.1-3.6
	c0-2-2.3-3.6-5.1-3.6c-2.8,0-5.1,1.6-5.1,3.6C265.1,321.5,267.4,323.1,270.2,323.1z M268.1,309.4c15.3,1.6,27.7,1.7,41.7,0.1
	c1.8-0.2,3.1-1.4,3-2.7c-0.2-4.5-0.5-14.2-0.5-14.2c-0.1-0.8-1.2-1.4-2.3-1.4c-6.9-0.8-36-0.9-42.3,0c-1.1,0-2.1,0.6-2.3,1.4
	c0,0-0.3,9.6-0.5,14.1C264.9,308,266.3,309.1,268.1,309.4z M307.8,323.1c2.8,0,5.1-1.6,5.1-3.6c0-2-2.3-3.6-5.1-3.6
	c-2.8,0-5.1,1.6-5.1,3.6C302.7,321.5,305,323.1,307.8,323.1z"/>
<rect id="XMLID_1_" x="219.2" y="275.1" class="st0" width="39.7" height="5.2"/>
<rect id="XMLID_10_" x="280.2" y="274.6" class="st0" width="18.9" height="7.5"/>
<rect id="XMLID_3_" x="219.2" y="278.3" class="st0" width="6.2" height="58.4"/>
<path id="XMLID_2_" class="st5" d="M306.8,284.1H271c-1.9,0-3.5-1.6-3.5-3.5l0,0c0-1.9,1.6-3.5,3.5-3.5h35.8c1.9,0,3.5,1.6,3.5,3.5
	l0,0C310.3,282.5,308.7,284.1,306.8,284.1z"/>
<path id="XMLID_8_" class="st5" d="M300.8,327.8h-23.7c-0.2,0-0.4-0.2-0.4-0.4l0,0c0-0.2,0.2-0.4,0.4-0.4h23.7
	c0.2,0,0.4,0.2,0.4,0.4l0,0C301.2,327.6,301,327.8,300.8,327.8z"/>
<path id="XMLID_16_" class="st5" d="M300.8,326.3h-23.7c-0.2,0-0.4-0.2-0.4-0.4l0,0c0-0.2,0.2-0.4,0.4-0.4h23.7
	c0.2,0,0.4,0.2,0.4,0.4l0,0C301.2,326.1,301,326.3,300.8,326.3z"/>
<path id="XMLID_17_" class="st5" d="M300.8,324.6h-23.7c-0.2,0-0.4-0.2-0.4-0.4l0,0c0-0.2,0.2-0.4,0.4-0.4h23.7
	c0.2,0,0.4,0.2,0.4,0.4l0,0C301.2,324.4,301,324.6,300.8,324.6z"/>
<g id="XMLID_63_">
	<g id="XMLID_75_">
		<path id="XMLID_79_" class="st8" d="M191.3,260.6c1.2,0,1.2-1.9,0-1.9C190.1,258.8,190.1,260.6,191.3,260.6L191.3,260.6z"/>
	</g>
</g>
</svg>
