<svg id="Layer_1" data-name="Layer 1" xmlns="http://www.w3.org/2000/svg" viewBox="0 0 1133.6 1133.6"><defs><style>.cls-1{fill:#f7bc2b;}.cls-2{fill:#fff;}</style></defs><title>energyaudit</title><rect class="cls-1" width="1133.6" height="1133.6"/><path class="cls-2" d="M695.63,576.72H566.8l29.48-75.84L607.2,472.8l0.05,0,10.38,4,13.1,5.07c2.42,0.94,4.43-1.78,3.94-3.94L606.59,356.13a3.23,3.23,0,0,0-4.71-1.91L498.83,425.27a3.24,3.24,0,0,0,.77,5.84l17,6.58,6,2.31-6.1,15.68-30.24,77.8L435.68,663.42c-0.77,2,1.16,4.06,3.09,4.06H567.66Q539.34,740.31,511,813.16a2.54,2.54,0,0,0,1.16,3.35,2.9,2.9,0,0,0,1.93.7h90.66a3.3,3.3,0,0,0,3.09-2.35l90.86-234.08C699.49,578.8,697.55,576.72,695.63,576.72Z" transform="translate(-0.4)"/></svg>