<?xml version="1.0" encoding="utf-8"?>
<!-- Generator: Adobe Illustrator 16.0.0, SVG Export Plug-In . SVG Version: 6.00 Build 0)  -->
<!DOCTYPE svg PUBLIC "-//W3C//DTD SVG 1.1//EN" "http://www.w3.org/Graphics/SVG/1.1/DTD/svg11.dtd">
<svg version="1.1" id="Layer_1" xmlns="http://www.w3.org/2000/svg" xmlns:xlink="http://www.w3.org/1999/xlink" x="0px" y="0px"
	 width="720px" height="720px" viewBox="0 0 720 720" enable-background="new 0 0 720 720" xml:space="preserve">
<path fill-rule="evenodd" clip-rule="evenodd" fill="#FFFFFF" d="M337.837,432.006v44.012h60.503
	c0-11.811-0.108-23.556,0.032-35.301c0.098-8.234-2.329-18.527,1.657-24.097c3.771-5.223,14.454-5.591,22.125-7.888
	c9.362-2.817,18.777-5.418,29.146-8.365v76.105c5.482,0,10.207-0.131,14.909,0.021c9.253,0.303,14.995,6.002,15.364,15.147
	c0.151,3.272-0.281,6.587,0.13,9.816c1.214,9.427-2.081,16.881-9.534,22.45c-10.934,8.148-14.141,18.831-13.501,32.311
	c0.976,20.867,0.672,41.844-0.022,62.756c-0.184,5.201-3.163,10.812-6.24,15.299c-9.199,13.436-64.674,17.336-81.067,16.729
	c-34.743-1.257,34.802-0.217,0,0c-6.831,0.043-73.375-2.991-78.57-7.151c-12.249-9.838-16.93-21.627-15.841-37.489
	c1.338-19.567,0.152-39.31,0.406-58.964c0.092-7.064-1.863-12.828-7.275-17.4c-1.154-0.976-2.01-2.341-3.229-3.164
	c-14.237-9.427-13.246-23.751-12.005-37.945c0.602-6.934,6.745-11.982,14.113-12.352c4.968-0.238,9.963-0.043,15.846-0.043
	c0-8.43-0.2-16.166,0.13-23.881c0.103-2.08,1.376-5.438,2.828-5.894C304.032,441.648,320.463,437.033,337.837,432.006"/>
<path fill-rule="evenodd" clip-rule="evenodd" fill="#FFFFFF" d="M230.359,349.659c-16.719-0.151-29.58-11.182-31.622-25.375
	c-2.173-15.142,6.083-29.39,20.673-33.691c19.536-5.77,39.331-10.711,59.023-16.004c67.589-18.083,135.184-36.199,202.794-54.25
	c19.134-5.092,35.104,3.293,39.938,20.754c4.745,17.098-5.179,32.879-24.228,37.993c-86.062,23.078-172.135,46.064-258.235,69.057
	C235.332,349.031,231.811,349.399,230.359,349.659"/>
<path fill-rule="evenodd" clip-rule="evenodd" fill="#FFFFFF" d="M522.553,162.582c0,14.303-8.69,25.527-23.447,29.537
	c-48.357,13.067-96.735,26.026-145.103,39.006c-38.167,10.234-76.333,20.451-114.526,30.625
	c-18.929,5.027-34.959-3.587-39.694-21.183c-4.529-16.74,5.304-32.516,23.908-37.532c86.295-23.198,172.612-46.32,258.968-69.323
	C503.829,128.067,522.53,141.866,522.553,162.582"/>
<path fill-rule="evenodd" clip-rule="evenodd" fill="#FFFFFF" d="M241.909,393.91c0-14.26,8.651-25.463,23.522-29.516
	c50.27-13.63,100.587-27.092,150.904-40.604c19.449-5.228,38.888-10.456,58.369-15.478c18.419-4.773,34.347,4.09,38.875,21.432
	c4.356,16.621-5.417,32.483-23.273,37.294c-69.474,18.68-138.98,37.359-208.509,55.887
	C260.806,428.495,241.92,414.562,241.909,393.91"/>
<path fill-rule="evenodd" clip-rule="evenodd" fill="#FFFFFF" d="M221.188,140.717c0.075-14.887,9.253-25.739,25.76-30.17
	c47.599-12.736,95.229-25.44,142.832-38.134c4.865-1.294,9.688-2.746,14.584-3.9c16.708-3.938,32.874,5.358,37.273,21.367
	c4.398,16.009-4.595,32.554-21.346,37.126c-53.568,14.708-107.229,29.189-160.959,43.27
	C239.303,175.524,221.09,160.865,221.188,140.717"/>
</svg>
