<?xml version="1.0" encoding="utf-8"?>
<!-- Generator: Adobe Illustrator 19.0.0, SVG Export Plug-In . SVG Version: 6.00 Build 0)  -->
<svg version="1.1" id="Layer_1" xmlns="http://www.w3.org/2000/svg" xmlns:xlink="http://www.w3.org/1999/xlink" x="0px" y="0px"
	 viewBox="0 0 1224 792" style="enable-background:new 0 0 1224 792;" xml:space="preserve">
<style type="text/css">
	.st0{fill:#323A5B;}
	.st1{fill:#FFFFFF;}
	.st2{fill:#323A5C;}
</style>
<rect id="XMLID_18_" x="248.7" y="15.9" class="st0" width="653" height="653"/>
<ellipse id="XMLID_12_" class="st1" cx="499" cy="333.2" rx="12" ry="11.4"/>
<path id="XMLID_11_" class="st1" d="M504.6,344.8h-11.7c-6.6,0-11.9,5.1-11.9,11.3v32.6c0,3,2.4,5.4,5.4,5.7v33.7H511v-33.7
	c3-0.3,5.4-2.7,5.4-5.7v-32.6C516.5,349.9,511.1,344.8,504.6,344.8z"/>
<path id="XMLID_4_" class="st1" d="M546.7,361.4c0-0.8,0.1-1.6,0.1-2.4l3.4-89.1c1.1-7.6,7.7-13.3,15.5-13.3h113.5
	c7.8,0,14.4,5.7,15.5,13.3l3.4,89.1c0,0.8,0.1,1.6,0.1,2.4l0.7,22.4c0.2,6.9-2.2,13.7-6.6,19v19.7c0,3.2-3.6,5.8-8,5.8h-12.7
	c-4.4,0-8-2.6-8-5.8v-9.5h-82.6v9.5c0,3.2-3.6,5.8-8,5.8h-12.7c-4.4,0-8-2.6-8-5.8v-19.7c-4.5-5.3-6.9-12-6.6-19L546.7,361.4z
	 M572.2,392.1c7.5,0,13.7-4.4,13.7-9.8c0-5.4-6.1-9.8-13.7-9.8c-7.5,0-13.7,4.4-13.7,9.8C558.5,387.7,564.6,392.1,572.2,392.1z
	 M566.4,355.1c41.1,4.3,74.6,4.7,112.4,0.2c4.9-0.6,8.4-3.7,8.2-7.2c-0.5-12.2-1.4-38.2-1.4-38.2c-0.4-2.2-3.1-3.9-6.1-3.9
	c-18.6-2.2-96.9-2.4-114,0c-3,0-5.7,1.7-6.1,3.9c0,0-0.9,25.8-1.4,38C557.9,351.4,561.5,354.5,566.4,355.1z M673.4,392.1
	c7.5,0,13.7-4.4,13.7-9.8c0-5.4-6.1-9.8-13.7-9.8s-13.7,4.4-13.7,9.8C659.7,387.7,665.8,392.1,673.4,392.1z"/>
<rect id="XMLID_1_" x="434.8" y="262.7" class="st1" width="106.9" height="13.9"/>
<rect id="XMLID_10_" x="599.1" y="261.3" class="st1" width="50.9" height="20.1"/>
<rect id="XMLID_3_" x="434.8" y="271.4" class="st1" width="16.6" height="157.4"/>
<path id="XMLID_2_" class="st0" d="M670.7,286.9h-96.4c-5.2,0-9.5-4.3-9.5-9.5v0c0-5.2,4.3-9.5,9.5-9.5h96.4c5.2,0,9.5,4.3,9.5,9.5
	v0C680.2,282.6,675.9,286.9,670.7,286.9z"/>
<path id="XMLID_8_" class="st0" d="M654.5,404.8h-63.9c-0.6,0-1.1-0.5-1.1-1.1v0c0-0.6,0.5-1.1,1.1-1.1h63.9c0.6,0,1.1,0.5,1.1,1.1
	v0C655.6,404.3,655.1,404.8,654.5,404.8z"/>
<path id="XMLID_16_" class="st0" d="M654.6,400.8h-63.9c-0.6,0-1.1-0.5-1.1-1.1l0,0c0-0.6,0.5-1.1,1.1-1.1h63.9
	c0.6,0,1.1,0.5,1.1,1.1l0,0C655.7,400.3,655.2,400.8,654.6,400.8z"/>
<path id="XMLID_17_" class="st0" d="M654.5,396.2h-63.9c-0.6,0-1.1-0.5-1.1-1.1l0,0c0-0.6,0.5-1.1,1.1-1.1h63.9
	c0.6,0,1.1,0.5,1.1,1.1l0,0C655.6,395.7,655.1,396.2,654.5,396.2z"/>
<g id="XMLID_63_">
	<g id="XMLID_75_">
		<path id="XMLID_79_" class="st2" d="M359.5,223.8c3.2,0,3.2-5,0-5C356.3,218.8,356.3,223.8,359.5,223.8L359.5,223.8z"/>
	</g>
</g>
</svg>
