<?xml version="1.0" encoding="UTF-8" standalone="no"?>
<svg width="200px" height="202px" viewBox="0 0 200 202" version="1.1" xmlns="http://www.w3.org/2000/svg" xmlns:xlink="http://www.w3.org/1999/xlink">
    <!-- Generator: Sketch 3.6.1 (26313) - http://www.bohemiancoding.com/sketch -->
    <title>currents</title>
    <desc>Created with Sketch.</desc>
    <defs></defs>
    <g id="Page-1" stroke="none" stroke-width="1" fill="none" fill-rule="evenodd">
        <g id="currents" fill="#FFFFFF">
            <g id="Page-1">
                <g id="Group">
                    <path d="M164.174785,70.8379607 C172.767037,41.1665271 135.196221,3.03880792 92.8726767,3.03880792 C40.8071952,3.03880792 -0.493949861,44.6148547 0.00446387527,96.3167195 C0.615190591,159.669227 47.6877723,213.636063 119.199178,199.8223 C72.5035801,194.493898 49.0042607,175.165443 37.1809417,154.60003 C53.2111905,171.4586 76.5050808,180.80905 101.819119,180.80905 C148.535113,180.80905 191.112254,148.80529 199.022709,96.8533368 C206.767395,45.9900477 167.413983,3.36504063 118.813755,0.000229809564 C118.025725,-0.0543289411 150.384553,9.60088491 165.725565,34.053879 C181.066577,58.5068746 179.613737,73.3457074 179.613737,79.6979093 C179.613737,122.333971 144.897501,156.897332 101.819116,156.897332 C99.7099567,156.897332 97.6170991,156.814029 95.5444639,156.650596 C95.2489039,156.637329 94.9529087,156.62196 94.6564879,156.604471 C55.0894932,154.270107 24.4274806,123.528331 24.4274806,86.6060158 C24.4274806,49.6836998 55.8700789,19.7522494 94.6564879,19.7522494 C127.737015,19.7522494 156.444389,41.5250062 164.174785,70.8379607 L164.174785,70.8379607 L164.174785,70.8379607 L164.174785,70.8379607 L164.174785,70.8379607 L164.174785,70.8379607 Z" id="Combined-Shape"></path>
                </g>
            </g>
        </g>
    </g>
</svg>