<?xml version="1.0" encoding="utf-8"?>
<!-- Generator: Adobe Illustrator 16.0.0, SVG Export Plug-In . SVG Version: 6.00 Build 0)  -->
<!DOCTYPE svg PUBLIC "-//W3C//DTD SVG 1.1//EN" "http://www.w3.org/Graphics/SVG/1.1/DTD/svg11.dtd">
<svg version="1.1" id="Layer_1" xmlns="http://www.w3.org/2000/svg" xmlns:xlink="http://www.w3.org/1999/xlink" x="0px" y="0px"
	 width="720px" height="720px" viewBox="0 0 720 720" enable-background="new 0 0 720 720" xml:space="preserve">
<path fill="#FFFFFF" d="M663.598,288.971c-1.11-0.013-2.239,0.096-3.369,0.295l-351.186,66.612l-206.15-47.299v-71.014
	c0,0,205.816,47.14,206.15,47.191l354.555-67.446l7.052-1.982c5.317-2.432,8.957-7.263,9.108-12.916
	c0.183-7.006-4.959-13.166-12.375-14.879L445.18,136.588c-2.321-0.533-4.823-0.583-7.166-0.161L83.369,203.688
	c-0.507,0.109-0.957,0.275-1.444,0.397c-0.372,0.109-0.757,0.173-1.116,0.295c-0.828,0.289-1.598,0.642-2.342,1.039
	c-0.109,0.051-0.225,0.078-0.333,0.147c-0.866,0.449-1.649,1.007-2.393,1.624c-0.225,0.173-0.411,0.385-0.629,0.583
	c-0.475,0.437-0.95,0.88-1.38,1.386c-0.244,0.289-0.449,0.584-0.667,0.892c-0.352,0.469-0.667,0.943-0.956,1.438
	c-0.186,0.333-0.346,0.667-0.507,1.014c-0.25,0.545-0.462,1.091-0.654,1.662c-0.071,0.211-0.173,0.404-0.225,0.597
	c-0.058,0.16-0.058,0.295-0.083,0.436c-0.135,0.583-0.212,1.174-0.263,1.771c-0.058,0.372-0.109,0.731-0.122,1.116
	c0,0.09-0.032,0.199-0.032,0.302v101.881c0,6.878,5.094,12.864,12.376,14.526l222.216,50.957c2.31,0.521,4.812,0.584,7.154,0.162
	l354.651-67.274c8.854-1.624,14.57-9.509,12.82-17.625c-1.041-4.722-4.414-8.431-8.806-10.42
	C670.648,290.594,666.979,288.695,663.598,288.971z"/>
<g>
	<path fill="#FFFFFF" d="M670.648,379.125c5.317-2.432,8.957-7.266,9.108-12.916c0.183-6.994-4.959-13.167-12.375-14.867
		l-357.229,65.254c-2.323-0.533-4.833-0.586-7.167-0.155L83.369,367.484c-0.507,0.108-0.957,0.275-1.444,0.397
		c-0.372,0.108-0.757,0.175-1.116,0.296c-0.821,0.295-1.598,0.635-2.342,1.039c-0.109,0.051-0.225,0.077-0.333,0.159
		c-0.866,0.45-1.649,0.996-2.393,1.604c-0.225,0.172-0.411,0.392-0.629,0.584c-0.475,0.437-0.95,0.879-1.38,1.387
		c-0.244,0.289-0.449,0.596-0.667,0.892c-0.352,0.48-0.667,0.931-0.956,1.438c-0.186,0.334-0.346,0.666-0.507,1.008
		c-0.25,0.545-0.462,1.09-0.654,1.674c-0.071,0.199-0.173,0.393-0.225,0.584c-0.058,0.16-0.058,0.295-0.083,0.438
		c-0.135,0.582-0.212,1.173-0.263,1.771c-0.058,0.373-0.109,0.746-0.122,1.117c0,0-0.032,0.211-0.032,0.312v101.884
		c0,6.864,5.094,12.852,12.376,14.524l74.921,17.209l0.109-31.041l-54.736-12.383v-70.994L309.505,447l354.093-65.893
		C663.598,381.107,668.756,380.176,670.648,379.125z M663.598,452.768c-1.11,0-2.239,0.099-3.369,0.296l-350.724,65.284
		l-41.808-8.143v30.779l37.124,8.563c2.31,0.533,4.812,0.584,7.154,0.162l354.65-67.275c8.854-1.622,14.572-9.506,12.82-17.622
		c-1.039-4.724-4.414-8.433-8.804-10.421C670.648,454.393,666.979,452.494,663.598,452.768z"/>
	<polygon fill="#FFFFFF" points="178.436,616.848 211.184,598.105 243.958,634.846 243.958,479.229 178.436,464.318 	"/>
</g>
</svg>
