<?xml version="1.0" encoding="utf-8"?>
<!-- Generator: Adobe Illustrator 16.0.0, SVG Export Plug-In . SVG Version: 6.00 Build 0)  -->
<!DOCTYPE svg PUBLIC "-//W3C//DTD SVG 1.1//EN" "http://www.w3.org/Graphics/SVG/1.1/DTD/svg11.dtd">
<svg version="1.1" id="Layer_1" xmlns="http://www.w3.org/2000/svg" xmlns:xlink="http://www.w3.org/1999/xlink" x="0px" y="0px"
	 width="360px" height="360px" viewBox="0 0 360 360" enable-background="new 0 0 360 360" xml:space="preserve">
<g>
	<defs>
		<rect id="SVGID_1_" width="360" height="360"/>
	</defs>
	<clipPath id="SVGID_2_">
		<use xlink:href="#SVGID_1_"  overflow="visible"/>
	</clipPath>
	<path clip-path="url(#SVGID_2_)" fill="#FFFFFF" d="M208.229,89.826c-10.656-11.778-21.256-23.606-31.886-35.407
		c-2.638-2.929-4.565-3.371-8.311-2.009c-12.11,4.404-24.228,8.787-36.32,13.241c-1.098,0.405-2.187,1.103-3.017,1.929
		c-14.084,14.019-28.134,28.072-42.158,42.151c-0.783,0.787-1.513,1.789-1.855,2.827c-4.038,12.237-8.016,24.494-11.962,36.761
		c-0.908,2.823-0.273,5.269,2.02,7.319c11.536,10.318,23.052,20.659,34.537,31.034c2.382,2.152,4.917,2.768,8.016,1.811
		c8.896-2.748,17.842-5.333,26.732-8.096c0.136-0.043,0.262-0.07,0.389-0.102c0.074-0.083,0.165-0.156,0.296-0.197
		c2.48-0.77,5.073-1.196,7.589-1.833c0.031-0.008,0.082-0.019,0.123-0.029c2.619-0.967,5.287-1.813,7.652-3.335
		c11.856-11.856,23.563-23.565,35.454-35.455c1.551-5.277,3.136-10.528,5.47-15.516c0.035-0.167,0.08-0.341,0.138-0.526
		c2.906-9.27,5.702-18.574,8.581-27.853C210.512,93.975,210.051,91.842,208.229,89.826 M87.928,143.268
		c0.111-0.402,0.254-0.99,0.436-1.565c2.314-7.332,4.607-14.671,6.985-21.982c0.317-0.977,0.923-1.963,1.65-2.69
		c13.003-12.987,26.039-25.943,39.099-38.873c0.741-0.733,1.686-1.377,2.657-1.74c7.581-2.833,15.183-5.611,22.805-8.331
		c0.797-0.285,2.191-0.45,2.553-0.025c0.507,0.592,0.586,1.867,0.359,2.72c-2.082,7.82-4.246,15.619-6.458,23.405
		c-0.243,0.856-0.801,1.716-1.435,2.353c-13.256,13.309-26.534,26.595-39.85,39.843c-0.776,0.771-1.838,1.409-2.883,1.73
		c-7.671,2.358-15.37,4.624-23.064,6.908C88.889,145.583,87.95,145.054,87.928,143.268 M141.468,168.957
		c-7.911,2.47-15.841,4.878-23.767,7.302c-0.255,0.078-0.528,0.095-1.177,0.205c-0.487-0.27-1.337-0.558-1.95-1.11
		c-7.524-6.775-15.023-13.579-22.505-20.401c-1.553-1.417-1.3-2.646,0.665-3.239c8.129-2.451,16.261-4.892,24.424-7.224
		c0.725-0.207,1.919,0.149,2.499,0.678c7.482,6.823,14.901,13.713,22.31,20.614C143.466,167.178,143.28,168.392,141.468,168.957
		 M183.64,133.068c-10.151,10.11-20.282,20.24-30.39,30.394c-1.182,1.188-2.04,1.318-3.357,0.071
		c-7.952-7.524-15.986-14.961-23.985-22.436c-2.045-1.912-2.053-2.297-0.129-4.222c10.557-10.564,21.117-21.125,31.689-31.675
		c0.498-0.497,1.117-0.872,1.799-1.394c0.6,0.473,1.113,0.78,1.505,1.2c7.665,8.19,15.31,16.399,22.976,24.589
		C184.905,130.831,184.84,131.871,183.64,133.068 M195.918,97.363c-2.236,7.639-4.608,15.238-6.963,22.842
		c-0.778,2.515-1.919,2.809-3.654,0.941c-6.716-7.229-13.418-14.469-20.108-21.722c-0.479-0.518-0.813-1.169-1.153-1.667
		c0.174-0.68,0.281-1.137,0.408-1.589c2.228-7.923,4.437-15.852,6.726-23.757c0.215-0.743,0.843-1.749,1.45-1.888
		c0.602-0.139,1.596,0.504,2.118,1.078c6.908,7.601,13.79,15.228,20.584,22.931C195.892,95.174,196.162,96.53,195.918,97.363"/>
	<path clip-path="url(#SVGID_2_)" fill="#FFFFFF" d="M213.014,145.521c-0.874,2.636-1.468,5.103-2.492,7.376
		c-2.196,4.873-5.506,9.032-9.009,13.021c-6.288,7.161-13.041,13.832-20.89,19.301c-3.511,2.446-7.204,4.558-11.524,5.251
		c-2.308,0.371-4.481,0.005-6.419-1.358c-2.282-1.604-3.091-4.235-2.097-6.691c0.982-2.429,3.457-3.836,6.189-3.194
		c1.438,0.338,2.619,0.139,3.722-0.644c3.748-2.659,7.629-5.168,11.144-8.11c5.843-4.891,11.055-10.44,15.565-16.604
		c1.254-1.714,2.334-3.559,3.427-5.383c0.655-1.094,0.94-2.187,0.538-3.585c-0.732-2.543,0.623-5.081,2.941-6.164
		c2.318-1.081,5.194-0.529,6.634,1.646C211.748,141.902,212.255,143.75,213.014,145.521"/>
	<path clip-path="url(#SVGID_2_)" fill="#FFFFFF" d="M226.821,159.698c-0.784,2.381-1.186,4.988-2.433,7.095
		c-2.481,4.19-5.146,8.339-8.241,12.085c-6.365,7.701-13.532,14.627-21.771,20.355c-3.322,2.309-6.824,4.303-10.875,5.058
		c-2.392,0.446-4.704,0.245-6.786-1.186c-2.429-1.671-3.293-4.432-2.173-6.953c1.063-2.396,3.732-3.574,6.506-3.067
		c0.875,0.159,2.015,0.115,2.731-0.327c3.031-1.867,6.091-3.736,8.877-5.938c6.76-5.342,12.747-11.488,17.945-18.368
		c1.452-1.921,2.672-4.022,3.939-6.076c0.677-1.094,0.926-2.2,0.51-3.588c-0.722-2.407,0.602-4.963,2.818-6.086
		c2.222-1.126,4.936-0.594,6.616,1.295C225.812,155.487,226.436,157.283,226.821,159.698"/>
	<path clip-path="url(#SVGID_2_)" fill="#FFFFFF" d="M195.095,218.8c-1.649-0.712-3.441-1.208-4.913-2.186
		c-2.217-1.472-2.779-4.246-1.697-6.61c1.05-2.291,3.615-3.45,6.191-3.084c1.097,0.155,2.493,0.106,3.374-0.449
		c3.35-2.114,6.7-4.283,9.766-6.779c6.409-5.218,12.111-11.164,17.051-17.806c1.232-1.658,2.298-3.446,3.372-5.215
		c0.78-1.286,1.234-2.543,0.684-4.208c-0.723-2.183,0.655-4.667,2.755-5.786c2.177-1.16,4.822-0.766,6.509,1.011
		c2.299,2.423,2.714,5.418,1.784,8.382c-0.921,2.931-2.081,5.916-3.771,8.454c-7.91,11.879-17.873,21.79-29.716,29.761
		C203.124,216.547,199.48,218.28,195.095,218.8"/>
	<path clip-path="url(#SVGID_2_)" fill="#FFFFFF" d="M257.034,189.577c-0.874,2.636-1.468,5.104-2.491,7.376
		c-2.197,4.873-5.507,9.032-9.01,13.021c-6.288,7.16-13.041,13.832-20.89,19.301c-3.511,2.446-7.204,4.558-11.524,5.251
		c-2.308,0.371-4.48,0.005-6.419-1.358c-2.281-1.604-3.091-4.235-2.097-6.691c0.982-2.43,3.457-3.836,6.189-3.194
		c1.438,0.338,2.618,0.139,3.722-0.644c3.748-2.659,7.629-5.169,11.145-8.11c5.843-4.892,11.055-10.44,15.564-16.604
		c1.254-1.714,2.334-3.559,3.427-5.383c0.655-1.094,0.941-2.187,0.538-3.585c-0.732-2.543,0.623-5.081,2.942-6.164
		c2.317-1.081,5.193-0.528,6.633,1.646C255.769,185.957,256.275,187.807,257.034,189.577"/>
	<path clip-path="url(#SVGID_2_)" fill="#FFFFFF" d="M270.842,203.754c-0.784,2.381-1.186,4.987-2.433,7.095
		c-2.481,4.19-5.146,8.339-8.241,12.085c-6.365,7.701-13.532,14.627-21.771,20.355c-3.323,2.309-6.825,4.303-10.875,5.058
		c-2.393,0.446-4.704,0.245-6.786-1.187c-2.43-1.671-3.293-4.431-2.173-6.952c1.062-2.396,3.731-3.574,6.506-3.067
		c0.875,0.159,2.015,0.115,2.731-0.327c3.031-1.867,6.091-3.737,8.877-5.938c6.761-5.343,12.747-11.488,17.945-18.368
		c1.452-1.921,2.672-4.022,3.939-6.076c0.677-1.094,0.926-2.2,0.51-3.588c-0.722-2.407,0.602-4.963,2.818-6.086
		c2.222-1.126,4.936-0.594,6.616,1.295C269.833,199.543,270.456,201.339,270.842,203.754"/>
	<path clip-path="url(#SVGID_2_)" fill="#FFFFFF" d="M239.115,262.855c-1.648-0.713-3.44-1.208-4.913-2.186
		c-2.217-1.472-2.778-4.246-1.696-6.611c1.049-2.291,3.614-3.449,6.19-3.084c1.098,0.156,2.493,0.107,3.374-0.448
		c3.351-2.114,6.7-4.283,9.767-6.779c6.408-5.218,12.111-11.164,17.05-17.806c1.232-1.658,2.298-3.446,3.372-5.216
		c0.78-1.285,1.234-2.543,0.684-4.208c-0.723-2.183,0.655-4.667,2.755-5.785c2.177-1.16,4.822-0.767,6.509,1.011
		c2.3,2.423,2.715,5.418,1.784,8.382c-0.921,2.931-2.081,5.916-3.771,8.454c-7.91,11.879-17.873,21.79-29.715,29.761
		C247.146,260.602,243.502,262.336,239.115,262.855"/>
</g>
<rect x="13" y="-9" width="0" height="1"/>
</svg>
