<?xml version="1.0" encoding="utf-8"?>
<!-- Generator: Adobe Illustrator 19.1.0, SVG Export Plug-In . SVG Version: 6.00 Build 0)  -->
<svg version="1.1" id="Layer_1" xmlns="http://www.w3.org/2000/svg" xmlns:xlink="http://www.w3.org/1999/xlink" x="0px" y="0px"
	 viewBox="0 0 1280 800" style="enable-background:new 0 0 1280 800;" xml:space="preserve">
<style type="text/css">
	.st0{fill:#22B573;}
	.st1{fill:#FFFFFF;}
</style>
<rect x="188.3" y="38" class="st0" width="744.6" height="744.6"/>
<path class="st1" d="M507.7,517.8c0,0.2,1.1,4.2,4.9,5.3c2.5,0.7,4.6-0.3,5.1-0.5c18.2-13.4,36.3-26.8,54.5-40.2l47.6,33.8
	c0.1,0.1,2.8,2.1,5.9,0.8c2.9-1.2,3.5-4,3.6-4.3c4.6-26.3,9.2-52.5,13.8-78.8l79.6-51.9c0.2-0.2,2.6-1.9,2.5-4.9
	c-0.1-2.4-1.7-4.7-4.3-5.5c-95.6-27-191.3-53.9-286.9-80.9c-2.6-1-5.5-0.2-7,1.9c-1.2,1.7-1.3,3.9-0.4,5.9
	c12.8,4.3,25.7,8.7,38.5,13l241.5,67.1L638,423.9L443.7,297.1l1.3,19.5l42.4,22.5L631,433.5l-8.7,56.3l-14.3-39.4L464.4,317.1
	l-28.6-20.8l6.9,18.2l150.6,137.2l6.5,9.5l12.5,36.3l-30.3-22.9l24.7-18.2l-9.5-10l-0.4,3.5l-80.1,59.7l-80.4-217.4l-8.6,9.5
	L507.7,517.8z"/>
<rect x="427.4" y="296.4" transform="matrix(0.9432 -0.3323 0.3323 0.9432 -75.1441 160.0928)" class="st1" width="6.3" height="6.7"/>
<polygon class="st1" points="436.5,307.1 518.6,374.4 599.8,454 514.4,517.5 "/>
<polygon class="st1" points="458.9,307.1 714.3,377 639.4,430.4 "/>
<path class="st1" d="M372.1,410.2"/>
</svg>
