<?xml version="1.0" encoding="utf-8"?>
<!-- Generator: Adobe Illustrator 16.0.0, SVG Export Plug-In . SVG Version: 6.00 Build 0)  -->
<!DOCTYPE svg PUBLIC "-//W3C//DTD SVG 1.1//EN" "http://www.w3.org/Graphics/SVG/1.1/DTD/svg11.dtd">
<svg version="1.1" id="Layer_1" xmlns="http://www.w3.org/2000/svg" xmlns:xlink="http://www.w3.org/1999/xlink" x="0px" y="0px"
	 width="720px" height="720px" viewBox="0 0 720 720" enable-background="new 0 0 720 720" xml:space="preserve">
<g>
	<path fill="#FFFFFF" d="M413.601,628.671c-106.901,0-213.803,0-320.931,0c0-51.59,0-103.18,0-154.771
		c38.562,18.57,77.184,37.021,115.641,55.805c8.389,4.098,16.993,5.812,26.133,5.623c13.609-0.28,23.095-7.684,25.446-21.052
		c1.217-6.92,0.806-14.157,0.815-21.251c0.059-46.451,0.01-92.901,0.082-139.352c0.004-2.663-0.684-4.128-3.24-5.346
		c-32.904-15.678-65.744-31.49-98.595-47.278c-1.542-0.741-3.044-1.569-5.094-2.63c1.567-0.874,2.484-1.453,3.456-1.917
		c38.816-18.556,77.626-37.124,116.498-55.563c1.437-0.681,3.746-0.665,5.196,0.006c11.935,5.52,23.765,11.269,35.624,16.954
		c2.465,1.182,4.92,2.384,8.161,3.955c-20.742,9.953-40.667,19.515-60.731,29.143c0.455,0.439,0.588,0.648,0.777,0.739
		c19.291,9.256,38.574,18.526,57.912,27.684c0.98,0.464,2.598,0.316,3.626-0.168c12.81-6.024,25.644-12.005,38.314-18.315
		c14.958-7.449,29.907-14.944,44.551-22.982c4.774-2.621,9.022-6.605,12.72-10.684c4.774-5.266,4.125-10.872-1.298-15.542
		c-3.016-2.598-6.368-4.977-9.922-6.747c-13.865-6.905-27.871-13.532-41.826-20.257c-17.168-8.274-34.069-17.172-51.57-24.669
		c-27.954-11.974-56.032-10.11-83.234,2.68c-41.656,19.586-83.057,39.716-124.588,59.57c-4.883,2.335-9.899,4.391-14.854,6.577
		c0-58.737,0-117.473,0-176.21c122.387,0,244.773,0,367.161,0c-0.922,0.579-1.799,1.252-2.773,1.723
		c-34.007,16.454-68.028,32.875-102.029,49.339c-6.561,3.177-12.751,6.951-17.645,12.48c-6.325,7.15-6.535,14.763,0.334,21.386
		c4.177,4.027,9.183,7.549,14.407,10.077c50.16,24.263,100.431,48.296,150.733,72.265c2.837,1.352,3.487,2.962,3.484,5.852
		c-0.075,65.532-0.058,131.064-0.058,196.597c0,1.311,0,2.622,0,4.284c1.261-0.474,2.201-0.747,3.072-1.163
		c17.794-8.513,35.521-17.164,53.414-25.463c3.57-1.655,4.43-3.692,4.425-7.354c-0.104-65.31-0.052-130.619-0.145-195.927
		c-0.004-3.24,0.951-4.932,3.943-6.33c16.658-7.783,33.209-15.794,49.79-23.741c2.241-1.074,4.444-2.23,6.857-3.444
		c-0.649-0.523-0.879-0.792-1.171-0.932c-18.994-9.095-37.979-18.209-57.026-27.189c-1.158-0.546-3.04-0.483-4.219,0.073
		c-18.741,8.853-37.439,17.8-56.099,26.827c-2.117,1.024-3.818,1.031-5.928,0.014c-23.787-11.471-47.616-22.854-71.426-34.279
		c-0.623-0.299-1.145-0.809-2.159-1.543c30.555-14.646,60.634-29.064,91.053-43.644c-0.741-0.509-1.065-0.795-1.439-0.977
		c-12.323-6.002-24.669-11.959-36.974-18c-7.284-3.576-14.504-7.283-21.753-10.931c56.057,0,112.113,0,168.17,0
		c0,178.667,0,357.334,0,536.001c-71.243,0-142.487,0-213.73,0c9.201-4.497,18.39-9.021,27.607-13.484
		c10.791-5.224,21.607-10.395,33.001-15.871c-40.922-19.71-81.308-39.161-122.295-58.902c1.807-0.935,2.946-1.568,4.122-2.126
		c17.925-8.507,35.875-16.961,53.759-25.554c2.232-1.072,3.982-1.086,6.203-0.018c38.872,18.705,77.787,37.317,116.661,56.018
		c2.021,0.973,3.629,0.952,5.636-0.008c16.489-7.889,33.03-15.668,49.549-23.493c2.742-1.298,5.452-2.66,8.651-4.225
		c-1.384-0.693-2.158-1.094-2.943-1.473c-38.85-18.757-77.688-37.536-116.58-56.208c-2.308-1.108-2.926-2.424-2.916-4.842
		c0.091-21.327,0.174-42.654,0.014-63.979c-0.128-17.07-2.577-33.8-8.888-49.775c-6.204-15.707-15.521-29.016-31.062-36.685
		c-22.835-11.271-46.215-8.519-68.447,0.767c-24.654,10.296-48.357,22.864-72.521,34.345c-2.138,1.016-2.831,2.205-2.821,4.536
		c0.089,22.555,0.054,45.11,0.054,67.665c0,43.771-0.001,87.541,0.006,131.312c0,1.717-0.32,3.274,1.956,4.354
		c30.914,14.675,61.773,29.463,92.624,44.271C395.442,619.679,404.506,624.208,413.601,628.671z"/>
	<path fill-rule="evenodd" clip-rule="evenodd" fill="#FFFFFF" d="M92.67,268.88c4.955-2.186,9.971-4.242,14.854-6.577
		c41.531-19.854,82.932-39.984,124.588-59.57c27.202-12.79,55.28-14.654,83.234-2.68c17.501,7.497,34.402,16.396,51.57,24.669
		c13.955,6.725,27.961,13.352,41.826,20.257c3.554,1.77,6.906,4.149,9.922,6.747c5.423,4.67,6.072,10.276,1.298,15.542
		c-3.697,4.079-7.945,8.063-12.72,10.684c-14.644,8.038-29.593,15.533-44.551,22.982c-12.67,6.31-25.504,12.291-38.314,18.315
		c-1.029,0.484-2.646,0.632-3.626,0.168c-19.337-9.158-38.621-18.428-57.912-27.684c-0.189-0.091-0.323-0.3-0.777-0.739
		c20.063-9.627,39.989-19.189,60.731-29.143c-3.241-1.571-5.696-2.773-8.161-3.955c-11.859-5.685-23.688-11.434-35.624-16.954
		c-1.45-0.67-3.76-0.687-5.196-0.006c-38.872,18.439-77.682,37.007-116.498,55.563c-0.971,0.464-1.888,1.043-3.456,1.917
		c2.049,1.062,3.551,1.889,5.094,2.63c32.852,15.788,65.691,31.601,98.595,47.278c2.556,1.218,3.244,2.683,3.24,5.346
		c-0.072,46.451-0.023,92.901-0.082,139.352c-0.009,7.094,0.402,14.331-0.815,21.251c-2.352,13.368-11.837,20.771-25.446,21.052
		c-9.14,0.188-17.745-1.525-26.133-5.623c-38.457-18.784-77.078-37.234-115.641-55.805c0-29.033,0-58.066,0-87.1
		c19.298,9.237,38.58,18.507,57.913,27.669c2.218,1.051,3.075,2.31,3.015,4.814c-0.177,7.476,0.042,14.961-0.12,22.438
		c-0.056,2.587,0.736,3.993,3.141,5.12c13.42,6.293,26.756,12.765,40.128,19.159c0.938,0.448,1.942,0.755,3.093,1.195
		c0.125-0.92,0.234-1.355,0.235-1.79c0.011-28.021-0.009-56.044,0.062-84.065c0.006-2.16-1.177-2.798-2.776-3.562
		c-22.12-10.573-44.205-21.22-66.325-31.793c-12.764-6.101-25.576-12.1-38.366-18.145C92.67,308.188,92.67,288.533,92.67,268.88z"/>
	<path fill-rule="evenodd" clip-rule="evenodd" fill="#FFFFFF" d="M413.601,628.671c-9.095-4.463-18.158-8.992-27.291-13.376
		c-30.851-14.808-61.71-29.596-92.624-44.271c-2.275-1.08-1.956-2.638-1.956-4.354c-0.007-43.771-0.006-87.541-0.006-131.312
		c0-22.555,0.036-45.11-0.054-67.665c-0.009-2.331,0.683-3.521,2.821-4.536c24.164-11.481,47.867-24.049,72.521-34.345
		c22.232-9.285,45.612-12.037,68.447-0.767c15.541,7.669,24.857,20.979,31.062,36.685c6.311,15.976,8.76,32.705,8.888,49.775
		c0.16,21.325,0.077,42.652-0.014,63.979c-0.01,2.418,0.608,3.733,2.916,4.842c38.892,18.672,77.73,37.451,116.58,56.208
		c0.785,0.379,1.56,0.779,2.943,1.473c-3.199,1.564-5.909,2.927-8.651,4.225c-16.519,7.825-33.06,15.604-49.549,23.493
		c-2.007,0.96-3.615,0.98-5.636,0.008c-38.874-18.7-77.789-37.312-116.661-56.018c-2.221-1.068-3.971-1.055-6.203,0.018
		c-17.884,8.593-35.834,17.047-53.759,25.554c-1.176,0.558-2.315,1.191-4.122,2.126c40.987,19.741,81.373,39.192,122.295,58.902
		c-11.394,5.477-22.21,10.647-33.001,15.871c-9.218,4.463-18.406,8.987-27.607,13.484
		C414.494,628.671,414.048,628.671,413.601,628.671z M353.103,481.486c1.149-0.39,1.888-0.56,2.554-0.879
		c18.9-9.031,37.777-18.11,56.711-27.067c1.866-0.884,1.95-2.107,1.884-3.727c-0.669-16.15-1.11-32.314-2.069-48.448
		c-0.429-7.212-1.641-14.452-5.295-20.916c-2.785-4.929-6.656-6.621-12.114-5.257c-3.008,0.753-5.995,1.779-8.808,3.079
		c-9.912,4.581-19.713,9.402-29.63,13.973c-2.458,1.132-3.312,2.553-3.3,5.297c0.112,26.676,0.067,53.352,0.067,80.027
		C353.103,478.76,353.103,479.952,353.103,481.486z"/>
	<path fill-rule="evenodd" clip-rule="evenodd" fill="#FFFFFF" d="M460.501,92.67c7.249,3.648,14.469,7.354,21.753,10.931
		c12.305,6.041,24.65,11.999,36.974,18c0.374,0.182,0.698,0.468,1.439,0.977c-30.419,14.58-60.498,28.998-91.053,43.644
		c1.015,0.734,1.536,1.244,2.159,1.543c23.81,11.425,47.639,22.808,71.426,34.279c2.109,1.017,3.811,1.01,5.928-0.014
		c18.659-9.027,37.357-17.975,56.099-26.827c1.179-0.557,3.061-0.62,4.219-0.073c19.048,8.98,38.032,18.095,57.026,27.189
		c0.292,0.14,0.521,0.409,1.171,0.932c-2.413,1.214-4.616,2.37-6.857,3.444c-16.581,7.947-33.132,15.958-49.79,23.741
		c-2.992,1.397-3.947,3.09-3.943,6.33c0.093,65.309,0.041,130.618,0.145,195.927c0.005,3.661-0.854,5.698-4.425,7.354
		c-17.893,8.299-35.62,16.95-53.414,25.463c-0.871,0.416-1.812,0.689-3.072,1.163c0-1.662,0-2.974,0-4.284
		c0-65.533-0.018-131.065,0.058-196.597c0.003-2.89-0.647-4.5-3.484-5.852c-50.302-23.968-100.573-48.001-150.733-72.265
		c-5.224-2.528-10.23-6.05-14.407-10.077c-6.87-6.623-6.66-14.236-0.334-21.386c4.894-5.53,11.084-9.304,17.645-12.48
		c34.001-16.464,68.022-32.885,102.029-49.339c0.975-0.471,1.852-1.144,2.773-1.723C460.054,92.67,460.277,92.67,460.501,92.67z"/>
	<path fill-rule="evenodd" clip-rule="evenodd" fill="#FFFFFF" d="M92.67,327.84c12.79,6.045,25.602,12.044,38.366,18.145
		c22.12,10.573,44.205,21.22,66.325,31.793c1.599,0.765,2.782,1.402,2.776,3.562c-0.071,28.021-0.051,56.044-0.062,84.065
		c0,0.435-0.11,0.87-0.235,1.79c-1.151-0.44-2.155-0.747-3.093-1.195c-13.373-6.395-26.708-12.866-40.128-19.159
		c-2.405-1.127-3.196-2.533-3.141-5.12c0.162-7.477-0.057-14.962,0.12-22.438c0.06-2.505-0.797-3.764-3.015-4.814
		c-19.333-9.162-38.615-18.432-57.913-27.669C92.67,367.147,92.67,347.494,92.67,327.84z"/>
	<path fill-rule="evenodd" clip-rule="evenodd" fill="#FFFFFF" d="M353.103,481.486c0-1.534,0-2.727,0-3.918
		c0-26.676,0.045-53.352-0.067-80.027c-0.012-2.744,0.843-4.165,3.3-5.297c9.917-4.57,19.718-9.392,29.63-13.973
		c2.812-1.3,5.8-2.326,8.808-3.079c5.458-1.364,9.329,0.328,12.114,5.257c3.654,6.464,4.866,13.704,5.295,20.916
		c0.959,16.134,1.4,32.298,2.069,48.448c0.066,1.619-0.018,2.843-1.884,3.727c-18.935,8.957-37.812,18.036-56.711,27.067
		C354.991,480.927,354.252,481.097,353.103,481.486z"/>
</g>
</svg>
