<?xml version="1.0" encoding="utf-8"?>
<!-- Generator: Adobe Illustrator 19.1.0, SVG Export Plug-In . SVG Version: 6.00 Build 0)  -->
<svg version="1.1" id="Layer_1" xmlns="http://www.w3.org/2000/svg" xmlns:xlink="http://www.w3.org/1999/xlink" x="0px" y="0px"
	 viewBox="0 0 792 612" style="enable-background:new 0 0 792 612;" xml:space="preserve">
<style type="text/css">
	.st0{fill:#FFFFFF;}
	.st1{font-family:'Gotham-Bold';}
	.st2{font-size:24.1189px;}
	.st3{letter-spacing:1;}
	.st4{fill:#F2F2F2;}
	.st5{fill:#F4A91E;}
	.st6{clip-path:url(#SVGID_2_);}
	.st7{font-size:24px;}
</style>
<text transform="matrix(1 0 0 1 411.2718 315.3533)"><tspan x="0" y="0" class="st0 st1 st2 st3">SOU</tspan><tspan x="60" y="0" class="st0 st1 st2 st3">T</tspan><tspan x="77.5" y="0" class="st0 st1 st2">H</tspan></text>
<text transform="matrix(1 0 0 1 411.2718 344.2966)"><tspan x="0" y="0" class="st0 st1 st2 st3">AFRIC</tspan><tspan x="87.9" y="0" class="st0 st1 st2">A</tspan></text>
<rect x="139.9" y="176.4" class="st4" width="512.3" height="259.1"/>
<rect x="147.9" y="183.5" class="st5" width="244.6" height="244.6"/>
<rect x="399.8" y="183.5" class="st5" width="244.6" height="244.6"/>
<g>
	<defs>
		<rect id="SVGID_1_" x="219.7" y="260.3" width="101" height="93"/>
	</defs>
	<clipPath id="SVGID_2_">
		<use xlink:href="#SVGID_1_"  style="overflow:visible;"/>
	</clipPath>
	<g class="st6">
		<defs>
			<rect id="SVGID_3_" x="219.7" y="260.3" width="101" height="93"/>
		</defs>
		<clipPath id="SVGID_4_">
			<use xlink:href="#SVGID_3_"  style="overflow:visible;"/>
		</clipPath>
		<g style="clip-path:url(#SVGID_4_);">
			
				<image style="overflow:visible;" width="125" height="125" xlink:href="D1341374DF1CBC52.png"  transform="matrix(0.8077 0 0 0.7436 219.6952 260.282)">
			</image>
		</g>
	</g>
</g>
<text transform="matrix(1 0 0 1 415.7847 285.2709)"><tspan x="0" y="0" class="st0 st1 st7 st3">SCHOOLHO</tspan><tspan x="161" y="0" class="st0 st1 st7 st3">U</tspan><tspan x="181" y="0" class="st0 st1 st7 st3">S</tspan><tspan x="198.3" y="0" class="st0 st1 st7">E</tspan></text>
<text transform="matrix(1 0 0 1 415.785 315.353)"><tspan x="0" y="0" class="st0 st1 st7 st3">SOU</tspan><tspan x="59.7" y="0" class="st0 st1 st7 st3">T</tspan><tspan x="77.1" y="0" class="st0 st1 st7">H</tspan></text>
<text transform="matrix(1 0 0 1 415.7855 344.2967)"><tspan x="0" y="0" class="st0 st1 st7 st3">AFRIC</tspan><tspan x="87.4" y="0" class="st0 st1 st7">A</tspan></text>
</svg>
